<svg width="23" height="23" viewBox="0 0 23 23" fill="none" xmlns="http://www.w3.org/2000/svg">
<g clip-path="url(#clip0)">
<path d="M3.90586 10.959C5.0656 10.959 6.00977 11.9032 6.00977 13.0629C6.00977 14.2227 5.0656 15.1668 3.90586 15.1668C2.74613 15.1668 1.80196 14.2227 1.80196 13.0629C1.80196 11.9032 2.74613 10.959 3.90586 10.959ZM2.10391 13.0629C2.10391 14.057 2.91178 14.8649 3.90586 14.8649C4.89994 14.8649 5.70782 14.057 5.70782 13.0629C5.70782 12.0688 4.89994 11.261 3.90586 11.261C2.91178 11.261 2.10391 12.0688 2.10391 13.0629Z" fill="black" stroke="#C7CADD"/>
<path d="M11.11 0.5C12.2697 0.5 13.2139 1.44417 13.2139 2.60391C13.2139 3.76364 12.2697 4.70781 11.11 4.70781C9.95027 4.70781 9.0061 3.76364 9.0061 2.60391C9.0061 1.44417 9.95027 0.5 11.11 0.5ZM9.30805 2.60391C9.30805 3.59799 10.1159 4.40586 11.11 4.40586C12.1041 4.40586 12.912 3.59799 12.912 2.60391C12.912 1.60982 12.1041 0.801953 11.11 0.801953C10.1159 0.801953 9.30805 1.60982 9.30805 2.60391Z" fill="black" stroke="#C7CADD"/>
<path d="M18.3141 10.959C19.4739 10.959 20.418 11.9032 20.418 13.0629C20.418 14.2227 19.4739 15.1668 18.3141 15.1668C17.1544 15.1668 16.2102 14.2227 16.2102 13.0629C16.2102 11.9032 17.1544 10.959 18.3141 10.959ZM16.5122 13.0629C16.5122 14.057 17.3201 14.8649 18.3141 14.8649C19.3082 14.8649 20.1161 14.057 20.1161 13.0629C20.1161 12.0688 19.3082 11.261 18.3141 11.261C17.3201 11.261 16.5122 12.0688 16.5122 13.0629Z" fill="black" stroke="#C7CADD"/>
<path d="M15.2442 17.2971L15.5852 17.4997L15.8601 17.2138C16.4812 16.568 17.3517 16.1668 18.3141 16.1668C20.1916 16.1668 21.72 17.6952 21.72 19.5727V21.569C21.72 21.6525 21.6524 21.72 21.569 21.72H15.0593C14.9758 21.72 14.9083 21.6525 14.9083 21.569V19.5727C14.9083 19.0659 15.0196 18.5856 15.2183 18.1536L15.4065 17.7447L15.0195 17.5148L11.3654 15.3433L11.11 15.1915L10.8546 15.3433L7.20046 17.5148L6.8135 17.7447L7.00167 18.1536C7.20045 18.5856 7.31172 19.0659 7.31172 19.5727V21.569C7.31172 21.6525 7.24416 21.72 7.16074 21.72H0.650977C0.567555 21.72 0.5 21.6525 0.5 21.569V19.5727C0.5 17.6952 2.02835 16.1668 3.90586 16.1668C4.86828 16.1668 5.73877 16.568 6.35993 17.2138L6.63483 17.4997L6.97575 17.2971L10.7145 15.0753L10.959 14.93V14.6455V11.761V11.261H10.459H7.85512C7.7717 11.261 7.70414 11.1934 7.70414 11.11V9.11368C7.70414 7.23618 9.23249 5.70782 11.11 5.70782C12.9875 5.70782 14.5159 7.23618 14.5159 9.11368V11.11C14.5159 11.1934 14.4483 11.261 14.3649 11.261H11.761H11.261V11.761V14.6455V14.93L11.5055 15.0753L15.2442 17.2971ZM13.7139 10.959H14.2139V10.459V9.11368C14.2139 7.40166 12.822 6.00978 11.11 6.00978C9.39798 6.00978 8.00609 7.40166 8.00609 9.11368V10.459V10.959H8.50609H13.7139ZM6.50977 21.4181H7.00977V20.9181V19.5727C7.00977 17.8607 5.61788 16.4688 3.90586 16.4688C2.19384 16.4688 0.801953 17.8607 0.801953 19.5727V20.9181V21.4181H1.30195H6.50977ZM20.918 21.4181H21.418V20.9181V19.5727C21.418 17.8607 20.0262 16.4688 18.3141 16.4688C16.6021 16.4688 15.2102 17.8607 15.2102 19.5727V20.9181V21.4181H15.7102H20.918Z" fill="black" stroke="#C7CADD"/>
</g>
<defs>
<clipPath id="clip0">
<rect width="22.22" height="22.22" fill="white"/>
</clipPath>
</defs>
</svg>
