<svg width="23" height="23" viewBox="0 0 23 23" fill="none" xmlns="http://www.w3.org/2000/svg">
<g clip-path="url(#clip0)">
<path d="M20.4759 2.47401H18.2255V1.65422C18.2255 1.2947 17.934 1.00324 17.5745 1.00324C17.215 1.00324 16.9235 1.2947 16.9235 1.65422V2.47401H5.29643V1.65422C5.29643 1.2947 5.00497 1.00324 4.64546 1.00324C4.28594 1.00324 3.99448 1.2947 3.99448 1.65422V2.47401H1.74414C0.78243 2.47401 0 3.25644 0 4.21815V19.4726C0 20.4343 0.78243 21.2167 1.74414 21.2167H20.4758C21.4375 21.2167 22.22 20.4343 22.22 19.4726V4.21815C22.22 3.25644 21.4376 2.47401 20.4759 2.47401ZM20.918 19.4726C20.918 19.7123 20.7155 19.9148 20.4759 19.9148H1.74414C1.50445 19.9148 1.30195 19.7123 1.30195 19.4726V4.21815C1.30195 3.97846 1.50445 3.77596 1.74414 3.77596H3.99448V4.57233C3.99448 4.93184 4.28594 5.2233 4.64546 5.2233C5.00497 5.2233 5.29643 4.93184 5.29643 4.57233V3.77596H16.9235V4.57233C16.9235 4.93184 17.215 5.2233 17.5745 5.2233C17.934 5.2233 18.2255 4.93184 18.2255 4.57233V3.77596H20.4759C20.7155 3.77596 20.918 3.97846 20.918 4.21815V19.4726Z" fill="#C7CADD"/>
<path d="M18.4723 7.41403C18.2181 7.15984 17.8059 7.15984 17.5517 7.41403L16.9175 8.04816L16.2834 7.41403C16.0292 7.15984 15.617 7.15984 15.3628 7.41403C15.1086 7.66821 15.1086 8.08041 15.3628 8.33464L15.9969 8.96877L15.3628 9.60291C15.1086 9.85709 15.1086 10.2693 15.3628 10.5235C15.4899 10.6506 15.6565 10.7142 15.8231 10.7142C15.9896 10.7142 16.1563 10.6506 16.2834 10.5235L16.9175 9.88938L17.5516 10.5235C17.6787 10.6506 17.8454 10.7142 18.0119 10.7142C18.1785 10.7142 18.3451 10.6506 18.4722 10.5235C18.7264 10.2693 18.7264 9.85714 18.4722 9.60291L17.8381 8.96877L18.4722 8.33464C18.7265 8.08041 18.7265 7.66821 18.4723 7.41403Z" fill="#C7CADD"/>
<path d="M12.6647 7.41401C12.4106 7.15979 11.9984 7.15979 11.7441 7.41401L11.11 8.04815L10.4758 7.41397C10.2216 7.15979 9.80942 7.15979 9.5552 7.41397C9.30097 7.66815 9.30097 8.08035 9.5552 8.33458L10.1894 8.96872L9.5552 9.60285C9.30097 9.85704 9.30097 10.2692 9.5552 10.5235C9.68231 10.6506 9.84891 10.7142 10.0155 10.7142C10.182 10.7142 10.3487 10.6506 10.4758 10.5235L11.11 9.88937L11.7442 10.5235C11.8713 10.6507 12.0379 10.7142 12.2044 10.7142C12.371 10.7142 12.5377 10.6507 12.6647 10.5235C12.919 10.2694 12.919 9.85717 12.6647 9.60294L12.0305 8.9688L12.6647 8.33467C12.919 8.08039 12.919 7.6682 12.6647 7.41401Z" fill="#C7CADD"/>
<path d="M6.85723 7.41403C6.60304 7.15984 6.19084 7.15984 5.93662 7.41403L5.30248 8.04816L4.66834 7.41403C4.41415 7.15984 4.00195 7.15984 3.74772 7.41403C3.4935 7.66821 3.4935 8.08041 3.74772 8.33464L4.38186 8.96877L3.74772 9.60291C3.4935 9.85709 3.4935 10.2693 3.74772 10.5235C3.87484 10.6506 4.04145 10.7142 4.20801 10.7142C4.37457 10.7142 4.54122 10.6506 4.66829 10.5235L5.30243 9.88938L5.93657 10.5235C6.06369 10.6506 6.23029 10.7142 6.39686 10.7142C6.56342 10.7142 6.73007 10.6506 6.85714 10.5235C7.11137 10.2693 7.11137 9.85714 6.85714 9.60291L6.223 8.96877L6.85714 8.33464C7.11146 8.08041 7.11146 7.66821 6.85723 7.41403Z" fill="#C7CADD"/>
<path d="M18.4723 13.9284C18.2181 13.6742 17.8059 13.6742 17.5517 13.9284L16.9175 14.5626L16.2834 13.9284C16.0293 13.6742 15.6171 13.6742 15.3628 13.9284C15.1086 14.1826 15.1086 14.5948 15.3628 14.849L15.997 15.4832L15.3628 16.1174C15.1086 16.3716 15.1086 16.7838 15.3628 17.038C15.4899 17.1651 15.6565 17.2287 15.8231 17.2287C15.9896 17.2287 16.1563 17.1651 16.2834 17.038L16.9175 16.4038L17.5516 17.038C17.6787 17.1652 17.8454 17.2287 18.0119 17.2287C18.1785 17.2287 18.3451 17.1651 18.4722 17.038C18.7264 16.7838 18.7264 16.3716 18.4722 16.1174L17.838 15.4832L18.4722 14.849C18.7265 14.5949 18.7265 14.1827 18.4723 13.9284Z" fill="#C7CADD"/>
<path d="M12.6647 13.9284C12.4105 13.6742 11.9983 13.6742 11.7441 13.9284L11.11 14.5626L10.4758 13.9284C10.2216 13.6742 9.80942 13.6742 9.5552 13.9284C9.30097 14.1826 9.30097 14.5948 9.5552 14.849L10.1894 15.4832L9.5552 16.1174C9.30097 16.3716 9.30097 16.7838 9.5552 17.038C9.68231 17.1651 9.84891 17.2287 10.0155 17.2287C10.182 17.2287 10.3487 17.1651 10.4758 17.038L11.11 16.4038L11.7442 17.038C11.8713 17.1651 12.0379 17.2287 12.2044 17.2287C12.371 17.2287 12.5377 17.1651 12.6647 17.038C12.919 16.7838 12.919 16.3716 12.6647 16.1174L12.0305 15.4832L12.6647 14.849C12.919 14.5948 12.919 14.1826 12.6647 13.9284Z" fill="#C7CADD"/>
<path d="M6.85723 13.9284C6.60304 13.6742 6.19084 13.6742 5.93662 13.9284L5.30248 14.5626L4.66834 13.9284C4.4142 13.6742 4.002 13.6742 3.74772 13.9284C3.4935 14.1826 3.4935 14.5948 3.74772 14.849L4.38191 15.4832L3.74772 16.1174C3.4935 16.3716 3.4935 16.7838 3.74772 17.038C3.87484 17.1651 4.04145 17.2287 4.20801 17.2287C4.37457 17.2287 4.54122 17.1651 4.66829 17.038L5.30243 16.4038L5.93657 17.038C6.06369 17.1652 6.23029 17.2287 6.39686 17.2287C6.56342 17.2287 6.73007 17.1651 6.85714 17.038C7.11137 16.7838 7.11137 16.3716 6.85714 16.1174L6.22296 15.4832L6.85714 14.849C7.11146 14.5949 7.11146 14.1827 6.85723 13.9284Z" fill="#C7CADD"/>
</g>
<defs>
<clipPath id="clip0">
<rect width="22.22" height="22.22" fill="white"/>
</clipPath>
</defs>
</svg>
