<svg width="23" height="23" viewBox="0 0 23 23" fill="none" xmlns="http://www.w3.org/2000/svg">
<g clip-path="url(#clip0)">
<path d="M2.58592 2.59098V21.8386C2.58592 22.0431 2.75165 22.2088 2.95611 22.2088H17.0217C17.226 22.2088 17.3918 22.0431 17.3918 21.8386V6.29256C17.3918 6.28433 17.3878 6.27732 17.387 6.26924C17.3852 6.23676 17.3788 6.20474 17.3681 6.1741C17.364 6.1622 17.3611 6.15077 17.3559 6.13918C17.3379 6.09893 17.3129 6.06219 17.2818 6.03078L13.5804 2.32935C13.549 2.2981 13.5121 2.27309 13.4716 2.25525C13.4604 2.25053 13.4491 2.24656 13.4376 2.24305C13.4066 2.23238 13.3744 2.22598 13.3417 2.22384C13.3354 2.22491 13.3281 2.22095 13.3203 2.22095H2.95611C2.75165 2.22095 2.58592 2.38653 2.58592 2.59098ZM16.1281 5.92237H13.6903V3.48459L16.1281 5.92237ZM3.32615 2.96117H12.9501V6.29256C12.9501 6.49687 13.1159 6.6626 13.3202 6.6626H16.6515V21.4686H3.32615V2.96117Z" fill="#C7CADD" stroke="#C7CADD"/>
<path d="M18.1321 19.2476V19.9879H19.2425C19.447 19.9879 19.6127 19.8223 19.6127 19.6178V0.370188C19.6127 0.165731 19.447 0 19.2425 0H5.17693C4.97247 0 4.80674 0.165731 4.80674 0.370188V1.4806H5.54712V0.740223H18.8723V19.2476H18.1321Z" fill="#C7CADD" stroke="#C7CADD"/>
<path d="M5.54712 7.40298H14.4305V8.1432H5.54712V7.40298Z" fill="#C7CADD"/>
<path d="M5.54712 5.18204H8.50832V5.92241H5.54712V5.18204Z" fill="#C7CADD"/>
<path d="M5.54712 9.62381H11.4695V10.3642H5.54712V9.62381Z" fill="#C7CADD"/>
<path d="M12.2097 9.62381H14.4306V10.3642H12.2097V9.62381Z" fill="#C7CADD"/>
<path d="M5.54712 11.8446H14.4305V12.585H5.54712V11.8446Z" fill="#C7CADD"/>
<path d="M5.54712 16.2864H14.4305V17.0268H5.54712V16.2864Z" fill="#C7CADD"/>
<path d="M8.87835 14.0656H14.4305V14.8058H8.87835V14.0656Z" fill="#C7CADD"/>
<path d="M5.54712 14.0656H8.13814V14.8058H5.54712V14.0656Z" fill="#C7CADD"/>
<path d="M5.54712 18.5074H7.02772V19.2476H5.54712V18.5074Z" fill="#C7CADD"/>
<path d="M7.76794 18.5074H14.4306V19.2476H7.76794V18.5074Z" fill="#C7CADD"/>
</g>
<defs>
<clipPath id="clip0">
<rect width="22.22" height="22.22" fill="white"/>
</clipPath>
</defs>
</svg>
