<svg width="23" height="23" viewBox="0 0 23 23" fill="none" xmlns="http://www.w3.org/2000/svg">
<g clip-path="url(#clip0)">
<mask id="path-1-inside-1" fill="white">
<path d="M16.4601 11.1141C16.4132 10.9597 16.2716 10.8535 16.1102 10.8516C15.9471 10.8496 15.8048 10.9526 15.7544 11.1059L12.4636 21.094C12.4033 21.2768 12.4933 21.4753 12.6704 21.5505C13.7215 21.9968 14.85 22.22 15.9784 22.22C17.1068 22.22 18.2353 21.9968 19.2863 21.5505C19.4604 21.4765 19.5508 21.2831 19.4958 21.1021L16.4601 11.1141ZM13.2756 20.9949L16.0917 12.4478L18.6887 20.9921C16.9515 21.6418 15.0135 21.6427 13.2756 20.9949Z"/>
</mask>
<path d="M16.4601 11.1141C16.4132 10.9597 16.2716 10.8535 16.1102 10.8516C15.9471 10.8496 15.8048 10.9526 15.7544 11.1059L12.4636 21.094C12.4033 21.2768 12.4933 21.4753 12.6704 21.5505C13.7215 21.9968 14.85 22.22 15.9784 22.22C17.1068 22.22 18.2353 21.9968 19.2863 21.5505C19.4604 21.4765 19.5508 21.2831 19.4958 21.1021L16.4601 11.1141ZM13.2756 20.9949L16.0917 12.4478L18.6887 20.9921C16.9515 21.6418 15.0135 21.6427 13.2756 20.9949Z" fill="black"/>
<path d="M16.4601 11.1141L17.4169 10.8233L17.4169 10.8232L16.4601 11.1141ZM16.1102 10.8516L16.0975 11.8516L16.0986 11.8516L16.1102 10.8516ZM15.7544 11.1059L16.7042 11.4188L16.7043 11.4185L15.7544 11.1059ZM12.4636 21.094L13.4133 21.4069L13.4133 21.4069L12.4636 21.094ZM12.6704 21.5505L13.0613 20.63L13.0613 20.63L12.6704 21.5505ZM19.2863 21.5505L18.8955 20.63L18.8955 20.63L19.2863 21.5505ZM19.4958 21.1021L18.539 21.3929L18.539 21.3931L19.4958 21.1021ZM13.2756 20.9949L12.3259 20.682L12.0247 21.5959L12.9264 21.932L13.2756 20.9949ZM16.0917 12.4478L17.0485 12.157L16.1302 9.13548L15.142 12.1348L16.0917 12.4478ZM18.6887 20.9921L19.0389 21.9288L19.9185 21.5998L19.6454 20.7013L18.6887 20.9921ZM17.4169 10.8232C17.2431 10.2518 16.7192 9.85864 16.1219 9.8517L16.0986 11.8516C15.8241 11.8484 15.5832 11.6677 15.5033 11.405L17.4169 10.8232ZM16.1229 9.85172C15.5198 9.84405 14.9903 10.2288 14.8045 10.7933L16.7043 11.4185C16.6194 11.6764 16.3745 11.8551 16.0975 11.8516L16.1229 9.85172ZM14.8046 10.793L11.5138 20.781L13.4133 21.4069L16.7042 11.4188L14.8046 10.793ZM11.5138 20.781C11.2908 21.4578 11.6238 22.1925 12.2796 22.4709L13.0613 20.63C13.3628 20.758 13.5159 21.0958 13.4133 21.4069L11.5138 20.781ZM12.2795 22.4709C13.4571 22.971 14.7187 23.22 15.9784 23.22V21.22C14.9812 21.22 13.986 21.0227 13.0613 20.63L12.2795 22.4709ZM15.9784 23.22C17.238 23.22 18.4997 22.971 19.6772 22.4709L18.8955 20.63C17.9708 21.0227 16.9755 21.22 15.9784 21.22V23.22ZM19.6772 22.4709C20.3218 22.1972 20.6563 21.4813 20.4525 20.8112L18.539 21.3931C18.4453 21.0849 18.5991 20.7559 18.8955 20.63L19.6772 22.4709ZM20.4526 20.8113L17.4169 10.8233L15.5033 11.4049L18.539 21.3929L20.4526 20.8113ZM14.2254 21.3079L17.0415 12.7607L15.142 12.1348L12.3259 20.682L14.2254 21.3079ZM15.1349 12.7386L17.7319 21.2829L19.6454 20.7013L17.0485 12.157L15.1349 12.7386ZM18.3384 20.0555C16.8268 20.6208 15.1372 20.6216 13.6249 20.0579L12.9264 21.932C14.8898 22.6638 17.0762 22.6628 19.0389 21.9288L18.3384 20.0555Z" fill="#C7CADD" mask="url(#path-1-inside-1)"/>
<path d="M9.96976 20.5942L9.96957 20.594L9.96976 20.5942ZM9.77072 20.7611C9.77068 20.7611 9.77064 20.761 9.77059 20.761L9.77072 20.7611Z" fill="black" stroke="#C7CADD"/>
<path d="M15.4693 16.3625C15.4679 16.3626 15.4664 16.3628 15.465 16.3629C15.4633 16.3657 15.4616 16.3686 15.4599 16.3714C15.463 16.3684 15.4661 16.3654 15.4693 16.3625ZM15.7234 17.0322C15.724 17.0318 15.7246 17.0314 15.7252 17.0309C15.7108 17.0271 15.6967 17.0229 15.6831 17.0187L15.6914 17.0328C15.702 17.0329 15.7127 17.0328 15.7234 17.0322ZM15.6424 16.7451C15.6381 16.7772 15.6178 16.8168 15.5779 16.8408L15.5145 16.7335L15.5197 16.7285L15.6329 16.6806C15.6425 16.7024 15.6451 16.7253 15.6424 16.7451ZM15.5144 16.7336L15.5778 16.8408C15.5766 16.8415 15.5754 16.8422 15.5742 16.8429C15.5742 16.8429 15.5742 16.8429 15.5742 16.8429C15.5358 16.8644 15.4952 16.8638 15.4664 16.8537C15.4507 16.8483 15.4346 16.8387 15.4205 16.8248L15.5135 16.7345L15.5135 16.7345L15.5144 16.7336ZM15.6321 16.6786L15.5259 16.7225L15.6077 16.6431C15.6184 16.6541 15.6264 16.6662 15.6321 16.6786ZM15.5969 16.6323L15.5086 16.7234L15.4851 16.6838L15.485 16.6836L15.4456 16.6169C15.4461 16.6166 15.4466 16.6163 15.4472 16.616C15.4472 16.616 15.4472 16.616 15.4472 16.616C15.5016 16.5847 15.5612 16.5978 15.5969 16.6323ZM15.5078 16.7243L15.4985 16.7338L15.3904 16.7785L15.3889 16.7744L15.3877 16.7715C15.3769 16.7407 15.3786 16.7114 15.3861 16.6886C15.3943 16.664 15.4129 16.6363 15.4454 16.617L15.4877 16.6884L15.4878 16.6887L15.5085 16.7235L15.5078 16.7243L15.5078 16.7243ZM15.3921 16.7825L15.4925 16.74L15.4155 16.8195C15.4078 16.8109 15.4009 16.8009 15.3952 16.7894L15.3945 16.7879L15.3921 16.7825ZM15.5269 16.9548C15.5648 16.9753 15.6194 16.9987 15.6831 17.0187L15.6914 17.0328C15.6676 17.0324 15.6442 17.0302 15.6215 17.0261C15.5901 17.0063 15.5564 16.9801 15.5269 16.9548Z" fill="#C7CADD" stroke="#C7CADD"/>
<path d="M16.9057 18.4568L16.9069 18.4563C16.9067 18.4562 16.9064 18.4561 16.9061 18.456M16.9057 18.4568C16.9058 18.4565 16.906 18.4562 16.9061 18.456M16.9057 18.4568L16.7979 18.5022M16.9057 18.4568C16.8994 18.4708 16.8861 18.4984 16.8653 18.5333C16.8653 18.5333 16.8653 18.5333 16.8653 18.5333C16.8569 18.5475 16.8473 18.5628 16.8364 18.5789L16.794 18.5066L16.7948 18.5056L16.7948 18.5056L16.7979 18.5022M16.9061 18.456C16.906 18.4559 16.9058 18.4559 16.9057 18.4558M16.9061 18.456C16.9061 18.4558 16.9062 18.4557 16.9063 18.4556L16.9057 18.4558M16.9057 18.4558L16.7989 18.501M16.9057 18.4558C16.8955 18.4521 16.8776 18.446 16.8536 18.4394L16.7989 18.501M16.7989 18.501L16.7986 18.5013L16.7986 18.5013L16.7979 18.5022M16.7989 18.501L16.7989 18.501M16.7979 18.5022L16.7978 18.5022M16.7978 18.5022L16.7948 18.5056L16.7948 18.5056L16.794 18.5065L16.7939 18.5065L16.7939 18.5053V18.5053L16.7939 18.5038M16.7978 18.5022L16.7985 18.5014L16.7985 18.5014L16.7989 18.501M16.7978 18.5022L16.7939 18.5038M16.7989 18.501L16.8536 18.4393C16.8366 18.4346 16.8165 18.4296 16.794 18.4249L16.7939 18.5031M16.7989 18.501L16.7939 18.5031M16.7939 18.5031L16.7938 18.5031M16.7939 18.5031L16.7939 18.5033L16.7939 18.5038M16.7938 18.5031L16.7938 18.4249C16.7774 18.4215 16.7596 18.4183 16.7407 18.4155L16.7923 18.5038M16.7938 18.5031L16.7923 18.5038M16.7938 18.5031L16.7938 18.5034L16.7938 18.5039M16.7923 18.5038L16.7922 18.5038M16.7923 18.5038L16.7924 18.5039L16.7927 18.5043M16.7922 18.5038L16.7405 18.4155C16.7289 18.4138 16.7169 18.4122 16.7044 18.4109C16.6911 18.4237 16.6804 18.4396 16.6732 18.4579C16.6732 18.4579 16.6732 18.4579 16.6732 18.4579C16.6618 18.487 16.6616 18.5145 16.6669 18.5366C16.6683 18.5424 16.6702 18.5484 16.6727 18.5544M16.7922 18.5038L16.7923 18.504L16.7926 18.5044M16.7922 18.5038L16.7913 18.5042L16.7912 18.5042L16.6727 18.5544M16.6727 18.5544L16.4522 18.6476L16.4522 18.6476L16.4522 18.6476L16.6729 18.5548M16.6727 18.5544C16.6727 18.5544 16.6727 18.5544 16.6727 18.5545C16.6728 18.5546 16.6728 18.5547 16.6729 18.5548M16.6729 18.5548C16.6798 18.5715 16.6911 18.5885 16.708 18.6035L16.7938 18.5067L16.7938 18.5065L16.7928 18.5048L16.7928 18.5048L16.7926 18.5044M16.6729 18.5548L16.7922 18.5046L16.7922 18.5046L16.7926 18.5044M16.7926 18.5044L16.7927 18.5043M16.7927 18.5043L16.793 18.5049L16.793 18.5049L16.7938 18.5063L16.7938 18.5052V18.5052L16.7938 18.5039M16.7927 18.5043L16.7938 18.5039M16.7938 18.5039L16.7939 18.5038M16.9101 18.4467L16.9101 18.4468L16.9102 18.4469L16.9105 18.4477L16.9127 18.4529L16.9128 18.4531C16.9128 18.453 16.9127 18.4529 16.9127 18.4529L16.9101 18.4467ZM16.9101 18.4467C16.9101 18.4467 16.9101 18.4468 16.91 18.447L16.9101 18.4467ZM16.8594 18.6186C16.8471 18.6258 16.8346 18.6306 16.8224 18.6335C16.8306 18.6217 16.8387 18.6095 16.8466 18.5967L16.8594 18.6186ZM16.8595 18.6185L16.8467 18.5966C16.8579 18.5783 16.8688 18.5591 16.8793 18.5388C16.8793 18.5388 16.8793 18.5388 16.8793 18.5388C16.892 18.5141 16.9041 18.4878 16.9154 18.4598C16.928 18.4941 16.9256 18.5259 16.9178 18.5489C16.9173 18.5504 16.9168 18.5518 16.9162 18.5533C16.9162 18.5533 16.9162 18.5533 16.9162 18.5533C16.9074 18.5763 16.8896 18.6009 16.8595 18.6185ZM16.7939 18.5068L16.8363 18.5791C16.8238 18.5975 16.8097 18.617 16.7939 18.6368L16.7939 18.5068ZM16.7938 18.6369C16.7896 18.6369 16.7855 18.6367 16.7815 18.6363C16.7578 18.634 16.7313 18.6242 16.708 18.6035L16.7938 18.5067L16.7938 18.6369ZM16.7939 18.4077C16.7713 18.4018 16.7493 18.3971 16.7278 18.3934C16.7469 18.3822 16.7694 18.3761 16.7939 18.3761L16.7939 18.4077ZM16.8629 18.4288C16.8394 18.4206 16.8164 18.4136 16.794 18.4078L16.794 18.3761C16.8286 18.3761 16.8586 18.3885 16.8809 18.4085L16.8629 18.4288ZM16.8629 18.4288L16.8809 18.4085C16.8929 18.4192 16.9026 18.4322 16.9098 18.4465C16.8939 18.4401 16.8783 18.4342 16.8629 18.4288Z" fill="#C7CADD" stroke="#C7CADD"/>
<path d="M15.2603 20.2397C15.1988 20.0946 15.0494 20.0003 14.8913 20.0124C14.7366 20.0243 14.6037 20.1336 14.562 20.2829C14.472 20.605 14.845 20.8767 15.1241 20.6894C15.2693 20.5919 15.3272 20.4014 15.2603 20.2397C15.2509 20.2175 15.2697 20.2624 15.2603 20.2397Z" fill="#C7CADD"/>
<path d="M2.5458 1.66159C2.40119 1.51703 2.16686 1.51703 2.0223 1.66159C1.87775 1.80614 1.87775 2.04047 2.0223 2.18503L2.49116 2.65388C2.56347 2.72619 2.65822 2.76231 2.75293 2.76231C2.84764 2.76231 2.9424 2.72619 3.0147 2.65388C3.15926 2.50933 3.15926 2.275 3.0147 2.13044L2.5458 1.66159Z" fill="#C7CADD"/>
<path d="M18.8292 3.72471C18.9239 3.72471 19.0187 3.68858 19.091 3.61628L19.5599 3.14742C19.7044 3.00287 19.7044 2.76853 19.5599 2.62398C19.4153 2.47942 19.1809 2.47942 19.0364 2.62398L18.5675 3.09284C18.423 3.23739 18.423 3.47172 18.5675 3.61628C18.6398 3.68858 18.7345 3.72471 18.8292 3.72471Z" fill="#C7CADD"/>
<path d="M13.9998 7.64317C14.059 7.67821 14.1239 7.69484 14.188 7.69484C14.3145 7.69484 14.4378 7.62999 14.5069 7.51322L14.8447 6.94265C14.9488 6.76675 14.8907 6.53968 14.7148 6.43554C14.5389 6.33145 14.312 6.38949 14.2077 6.56544L13.8698 7.13601C13.7657 7.31201 13.8238 7.53903 13.9998 7.64317Z" fill="#C7CADD"/>
<mask id="path-10-inside-2" fill="white">
<path d="M6.26442 16.9085L5.79557 17.3773C5.65101 17.5219 5.65101 17.7563 5.79557 17.9008C5.86787 17.973 5.96263 18.0092 6.05734 18.0092C6.15205 18.0092 6.2468 17.9731 6.31911 17.9008L6.78796 17.4319C6.93252 17.2874 6.93252 17.053 6.78796 16.9085C6.64331 16.7639 6.40898 16.7639 6.26442 16.9085Z"/>
</mask>
<path d="M6.26442 16.9085L5.79557 17.3773C5.65101 17.5219 5.65101 17.7563 5.79557 17.9008C5.86787 17.973 5.96263 18.0092 6.05734 18.0092C6.15205 18.0092 6.2468 17.9731 6.31911 17.9008L6.78796 17.4319C6.93252 17.2874 6.93252 17.053 6.78796 16.9085C6.64331 16.7639 6.40898 16.7639 6.26442 16.9085Z" fill="#C7CADD"/>
<path d="M5.79557 17.9008L5.08858 18.608L5.0887 18.6081L5.79557 17.9008ZM6.78796 16.9085L7.49495 16.2013L7.49483 16.2011L6.78796 16.9085ZM5.55731 16.2014L5.08846 16.6702L6.50267 18.0844L6.97153 17.6156L5.55731 16.2014ZM5.08846 16.6702C4.55345 17.2053 4.55327 18.0729 5.08858 18.608L6.50255 17.1936C6.74875 17.4397 6.74857 17.8385 6.50267 18.0844L5.08846 16.6702ZM5.0887 18.6081C5.35581 18.8751 5.70802 19.0092 6.05734 19.0092V17.0092C6.21724 17.0092 6.37993 17.071 6.50243 17.1934L5.0887 18.6081ZM6.05734 19.0092C6.40635 19.0092 6.7588 18.8753 7.02621 18.6079L5.612 17.1937C5.73481 17.0709 5.89774 17.0092 6.05734 17.0092V19.0092ZM7.02621 18.6079L7.49507 18.139L6.08085 16.7248L5.612 17.1937L7.02621 18.6079ZM7.49507 18.139C8.03008 17.604 8.03026 16.7364 7.49495 16.2013L6.08097 17.6157C5.83478 17.3696 5.83496 16.9707 6.08085 16.7248L7.49507 18.139ZM7.49483 16.2011C6.95984 15.6665 6.09253 15.6662 5.55731 16.2014L6.97153 17.6156C6.72543 17.8617 6.32678 17.8613 6.0811 17.6158L7.49483 16.2011Z" fill="#C7CADD" mask="url(#path-10-inside-2)"/>
<mask id="path-12-inside-3" fill="white">
<path d="M2.4924 11.302C2.28793 11.302 2.12225 11.4677 2.12225 11.6722V12.3352C2.12225 12.5397 2.28793 12.7054 2.4924 12.7054C2.69687 12.7054 2.86255 12.5397 2.86255 12.3352V11.6722C2.86255 11.4677 2.69682 11.302 2.4924 11.302Z"/>
</mask>
<path d="M2.4924 11.302C2.28793 11.302 2.12225 11.4677 2.12225 11.6722V12.3352C2.12225 12.5397 2.28793 12.7054 2.4924 12.7054C2.69687 12.7054 2.86255 12.5397 2.86255 12.3352V11.6722C2.86255 11.4677 2.69682 11.302 2.4924 11.302Z" fill="#C7CADD"/>
<path d="M2.4924 10.302C1.73554 10.302 1.12225 10.9156 1.12225 11.6722H3.12225C3.12225 12.0199 2.84031 12.302 2.4924 12.302V10.302ZM1.12225 11.6722V12.3352H3.12225V11.6722H1.12225ZM1.12225 12.3352C1.12225 13.0919 1.73554 13.7054 2.4924 13.7054V11.7054C2.84031 11.7054 3.12225 11.9875 3.12225 12.3352H1.12225ZM2.4924 13.7054C3.24925 13.7054 3.86255 13.0919 3.86255 12.3352H1.86255C1.86255 11.9875 2.14448 11.7054 2.4924 11.7054V13.7054ZM3.86255 12.3352V11.6722H1.86255V12.3352H3.86255ZM3.86255 11.6722C3.86255 10.9155 3.24911 10.302 2.4924 10.302V12.302C2.14452 12.302 1.86255 12.02 1.86255 11.6722H3.86255Z" fill="#C7CADD" mask="url(#path-12-inside-3)"/>
<mask id="path-14-inside-4" fill="white">
<path d="M19.936 9.7319H19.2729C19.0684 9.7319 18.9027 9.89763 18.9027 10.1021C18.9027 10.3065 19.0684 10.4722 19.2729 10.4722H19.936C20.1405 10.4722 20.3061 10.3065 20.3061 10.1021C20.3061 9.89763 20.1405 9.7319 19.936 9.7319Z"/>
</mask>
<path d="M19.936 9.7319H19.2729C19.0684 9.7319 18.9027 9.89763 18.9027 10.1021C18.9027 10.3065 19.0684 10.4722 19.2729 10.4722H19.936C20.1405 10.4722 20.3061 10.3065 20.3061 10.1021C20.3061 9.89763 20.1405 9.7319 19.936 9.7319Z" fill="#C7CADD"/>
<path d="M19.936 8.7319H19.2729V10.7319H19.936V8.7319ZM19.2729 8.7319C18.516 8.7319 17.9027 9.34543 17.9027 10.1021H19.9027C19.9027 10.4498 19.6208 10.7319 19.2729 10.7319V8.7319ZM17.9027 10.1021C17.9027 10.8587 18.516 11.4722 19.2729 11.4722V9.4722C19.6208 9.4722 19.9027 9.75428 19.9027 10.1021H17.9027ZM19.2729 11.4722H19.936V9.4722H19.2729V11.4722ZM19.936 11.4722C20.6928 11.4722 21.3061 10.8587 21.3061 10.1021H19.3061C19.3061 9.75428 19.5881 9.4722 19.936 9.4722V11.4722ZM21.3061 10.1021C21.3061 9.34543 20.6928 8.7319 19.936 8.7319V10.7319C19.5881 10.7319 19.3061 10.4498 19.3061 10.1021H21.3061Z" fill="#C7CADD" mask="url(#path-14-inside-4)"/>
<mask id="path-16-inside-5" fill="white">
<path d="M8.27059 4.57645H7.60753C7.40306 4.57645 7.23738 4.74218 7.23738 4.9466C7.23738 5.15102 7.40306 5.31675 7.60753 5.31675H8.27059C8.47507 5.31675 8.64075 5.15102 8.64075 4.9466C8.64075 4.74218 8.47507 4.57645 8.27059 4.57645Z"/>
</mask>
<path d="M8.27059 4.57645H7.60753C7.40306 4.57645 7.23738 4.74218 7.23738 4.9466C7.23738 5.15102 7.40306 5.31675 7.60753 5.31675H8.27059C8.47507 5.31675 8.64075 5.15102 8.64075 4.9466C8.64075 4.74218 8.47507 4.57645 8.27059 4.57645Z" fill="#C7CADD"/>
<path d="M8.27059 3.57645H7.60753V5.57645H8.27059V3.57645ZM7.60753 3.57645C6.85069 3.57645 6.23738 4.18998 6.23738 4.9466H8.23738C8.23738 5.29437 7.95543 5.57645 7.60753 5.57645V3.57645ZM6.23738 4.9466C6.23738 5.70322 6.85069 6.31675 7.60753 6.31675V4.31675C7.95543 4.31675 8.23738 4.59882 8.23738 4.9466H6.23738ZM7.60753 6.31675H8.27059V4.31675H7.60753V6.31675ZM8.27059 6.31675C9.02744 6.31675 9.64075 5.70322 9.64075 4.9466H7.64075C7.64075 4.59882 7.92269 4.31675 8.27059 4.31675V6.31675ZM9.64075 4.9466C9.64075 4.18998 9.02744 3.57645 8.27059 3.57645V5.57645C7.92269 5.57645 7.64075 5.29437 7.64075 4.9466H9.64075Z" fill="#C7CADD" mask="url(#path-16-inside-5)"/>
</g>
<defs>
<clipPath id="clip0">
<rect width="22.22" height="22.22" fill="white"/>
</clipPath>
</defs>
</svg>
