<svg width="23" height="23" viewBox="0 0 23 23" fill="none" xmlns="http://www.w3.org/2000/svg">
<g clip-path="url(#clip0)">
<path d="M21.5148 9.75662L11.6277 0.2106C11.3397 -0.0701594 10.8803 -0.0701594 10.5923 0.2106L0.705583 9.75625C0.560031 9.89672 0.477844 10.0903 0.477844 10.2926C0.477844 10.7043 0.811625 11.0381 1.22331 11.0381H2.53718V21.4745C2.53718 21.8863 2.87092 22.22 3.28264 22.22H8.50088C8.91261 22.22 9.24634 21.8863 9.24634 21.4745V15.5108H12.9736V21.4745C12.9736 21.8863 13.3074 22.22 13.7191 22.22H18.9373C19.3491 22.22 19.6828 21.8863 19.6828 21.4745V11.0381H20.9967C21.1988 11.0381 21.3922 10.956 21.5327 10.8107C21.8188 10.5147 21.8108 10.0427 21.5148 9.75662ZM19.6828 10.2926C19.2711 10.2926 18.9373 10.6263 18.9373 11.0381V21.4745H13.7191V15.5108C13.7191 15.0991 13.3854 14.7654 12.9736 14.7654H9.24634C8.83461 14.7654 8.50088 15.0991 8.50088 15.5108V21.4745H3.28264V11.0381C3.28264 10.6263 2.94891 10.2926 2.53718 10.2926H1.22331L11.11 0.746961L21.0004 10.2926H19.6828Z" fill="#C7CADD" stroke="#C7CADD"/>
</g>
<defs>
<clipPath id="clip0">
<rect width="22.22" height="22.22" fill="white"/>
</clipPath>
</defs>
</svg>
