<svg width="23" height="23" viewBox="0 0 23 23" fill="none" xmlns="http://www.w3.org/2000/svg">
<g clip-path="url(#clip0)">
<path d="M5.74518 7.61834C6.54903 8.18796 7.45922 8.48921 8.37767 8.48921C9.57984 8.48921 10.7629 7.98395 11.7102 7.06678C11.9624 6.82244 12.226 6.53704 12.2971 6.45247C12.3288 6.41443 12.3578 6.37093 12.3829 6.32302C13.2929 4.60383 13.1403 2.8253 11.9645 1.4432C11.6871 1.11723 11.4406 0.840092 11.351 0.753547C11.3041 0.708437 11.2466 0.667829 11.1796 0.633422C10.3624 0.213101 9.53482 0 8.71931 0C7.59799 0 6.51623 0.397261 5.50364 1.18044C5.45665 1.21682 5.41627 1.25637 5.38375 1.29822C5.31144 1.39161 5.07781 1.71096 4.87114 2.0141C3.52202 3.99283 3.88148 6.29738 5.74518 7.61834ZM6.35669 2.30525C6.37814 2.2826 6.39725 2.25894 6.41443 2.23528C6.48393 2.13882 6.78404 1.87794 7.13348 1.70265C7.89998 1.31765 8.75748 1.23469 9.61222 1.46281C10.0118 1.56929 10.5642 1.9107 10.8439 2.22362C11.5663 3.03279 11.7946 3.97473 11.504 4.94712C11.3943 5.3136 11.2176 5.63608 11.1574 5.69883C10.4923 6.59198 9.5639 7.07546 8.52904 7.07546C7.26578 7.07546 6.06738 6.34089 5.61476 5.28944C5.37135 4.72446 5.14465 3.58592 6.35669 2.30525Z" fill="#C7CADD"/>
<path d="M17.1771 11.1653C17.1757 11.0766 17.1531 10.9832 17.0971 10.8879C16.505 9.88398 15.4824 9.42489 14.3345 9.56531C14.3242 9.56646 14.3154 9.57009 14.3053 9.57174C14.2836 9.56963 14.2631 9.56531 14.24 9.56531C10.2642 9.56531 6.26045 9.37835 2.30005 9.79895C2.2283 9.79077 2.15053 9.79661 2.06619 9.82238C1.25371 10.0703 0.564655 10.6281 0.21209 11.4086C0.179659 11.4809 0.158528 11.5558 0.14957 11.6302C0.112499 11.702 0.0890254 11.7862 0.0871879 11.8847C0.0339013 14.6001 -0.0790112 17.312 0.0871879 20.0261C0.10152 20.2596 0.228811 20.4177 0.393127 20.5019C0.477237 20.5817 0.592125 20.6347 0.742246 20.6347C1.81666 20.6347 2.89094 20.6302 3.96448 20.5805C3.96668 20.9409 3.96829 21.2752 3.96903 21.564C3.96926 21.6638 3.992 21.7491 4.02875 21.822C4.09347 22.0063 4.25255 22.1534 4.50644 22.1539C7.54438 22.1574 10.5817 22.2164 13.6196 22.22C14.095 22.2204 14.2377 21.7072 14.0499 21.396C14.049 21.2761 14.0471 21.1488 14.0452 21.0167C14.9153 20.9722 15.7859 20.965 16.6573 20.965C16.7947 20.965 16.9032 20.9206 16.9853 20.8518C17.2974 20.8983 17.6492 20.7181 17.6483 20.3099C17.6424 17.3712 17.5442 14.4363 17.3171 11.506C17.3056 11.3649 17.2529 11.2518 17.1771 11.1653ZM9.19098 10.8867C9.43637 11.1729 9.67708 11.4622 9.89473 11.7697C9.70295 12.0335 9.50422 12.2922 9.30711 12.5523C9.03838 12.3405 8.78683 12.106 8.53266 11.8757C8.76248 11.5527 8.98606 11.2259 9.19098 10.8867ZM5.10266 21.0998C5.09448 19.2728 5.06007 16.3326 5.05704 14.7246C5.05552 13.992 3.91951 13.992 3.92093 14.7246C3.92337 15.9213 3.94298 17.8584 3.9564 19.5239C3.0384 19.5663 2.11989 19.5759 1.20106 19.5773C1.07276 17.0261 1.17143 14.477 1.22229 11.9241C1.45358 11.447 1.81923 11.1001 2.32771 10.9323C4.28075 10.7264 6.24414 10.6677 8.2095 10.6607C8.01913 10.9556 7.81609 11.2425 7.61213 11.528C7.55508 11.6077 7.53574 11.7029 7.54484 11.7967C7.43849 11.9616 7.43183 12.1769 7.6272 12.3458C8.00508 12.6728 8.36747 13.0147 8.75876 13.3246C8.3333 14.4913 7.8081 15.6066 7.15447 16.6635C7.12135 16.7172 7.1027 16.7704 7.09199 16.8219C7.04183 16.9399 7.03774 17.0801 7.11487 17.2253C7.79749 18.5129 8.48259 19.7986 9.07683 21.1296C7.75183 21.1171 6.42738 21.1045 5.10266 21.0998ZM8.07095 16.9925C8.61296 16.0942 9.06277 15.1511 9.4485 14.1779C9.85114 15.054 10.2178 15.9428 10.4898 16.8725C10.4909 16.8767 10.4931 16.88 10.4943 16.8842C10.4931 16.8889 10.491 16.8926 10.4898 16.8973C10.2433 17.9316 9.91389 18.9409 9.58264 19.9498C9.1082 18.9494 8.59008 17.9708 8.07095 16.9925ZM14.0231 19.961C13.9783 18.1868 13.8881 15.9614 13.8138 14.6302C13.773 13.9017 12.637 13.898 12.6779 14.6302C12.7702 16.2845 12.888 19.3256 12.9109 21.1595C12.007 21.1562 11.1033 21.1469 10.1994 21.1385C10.6249 19.8154 11.0884 18.505 11.4112 17.1511C11.4327 17.0606 11.4278 16.9789 11.407 16.9057C11.4373 16.8235 11.4429 16.7265 11.4112 16.6183C11.0618 15.4251 10.5619 14.2922 10.0286 13.172C10.2733 12.844 10.5265 12.5217 10.7658 12.1891C10.7886 12.1574 10.8035 12.1228 10.815 12.0874C10.9594 11.9539 11.024 11.7449 10.8852 11.528C10.6934 11.2278 10.4769 10.9456 10.2516 10.6703C11.5663 10.682 12.8805 10.7004 14.1917 10.7008C14.2358 10.7061 14.2827 10.7073 14.3342 10.7011C15.0914 10.6084 15.7131 10.778 16.1157 11.4613C16.1362 11.496 16.1595 11.5259 16.1833 11.5537C16.398 14.3346 16.4936 17.1196 16.5076 19.9083C15.679 19.9097 14.8507 19.9181 14.0231 19.961Z" fill="#C7CADD"/>
</g>
<defs>
<clipPath id="clip0">
<rect width="22.22" height="22.22" fill="white"/>
</clipPath>
</defs>
</svg>
