<svg width="23" height="23" viewBox="0 0 23 23" fill="none" xmlns="http://www.w3.org/2000/svg">
<g clip-path="url(#clip0)">
<path d="M21.525 10.416H12.7298C12.3465 10.416 12.0354 10.1049 12.0354 9.72164C12.0354 9.33835 12.3465 9.02728 12.7298 9.02728H21.525C21.9082 9.02728 22.2193 9.33835 22.2193 9.72164C22.2193 10.1049 21.9082 10.416 21.525 10.416Z" fill="#C7CADD"/>
<path d="M18.0532 13.8878C17.8754 13.8878 17.6977 13.8201 17.5624 13.6842C17.2912 13.4128 17.2912 12.973 17.5624 12.7018L20.5436 9.7208L17.5624 6.73961C17.2912 6.46838 17.2912 6.02865 17.5624 5.75741C17.8338 5.48601 18.2736 5.48601 18.5448 5.75741L22.0166 9.22919C22.2878 9.50042 22.2878 9.94016 22.0166 10.2114L18.5448 13.6832C18.4087 13.8201 18.231 13.8878 18.0532 13.8878Z" fill="#C7CADD"/>
<path d="M7.40648 22.22C7.20832 22.22 7.02032 22.1922 6.83249 22.1339L1.26088 20.2776C0.502788 20.0128 -7.62939e-06 19.3064 -7.62939e-06 18.5168V1.85234C-7.62939e-06 0.831149 0.83047 0.000671387 1.85166 0.000671387C2.04966 0.000671387 2.23765 0.0284727 2.42565 0.0867875L7.99709 1.94303C8.75535 2.20782 9.25798 2.91421 9.25798 3.70383V20.3683C9.25798 21.3895 8.42767 22.22 7.40648 22.22ZM1.85166 1.38938C1.59704 1.38938 1.3887 1.59772 1.3887 1.85234V18.5168C1.3887 18.714 1.52109 18.8972 1.70994 18.963L7.25544 20.8109C7.29528 20.8238 7.34715 20.8313 7.40648 20.8313C7.6611 20.8313 7.86927 20.6229 7.86927 20.3683V3.70383C7.86927 3.50668 7.73688 3.32343 7.54803 3.25766L2.00253 1.40972C1.96269 1.39684 1.91082 1.38938 1.85166 1.38938Z" fill="#C7CADD"/>
<path d="M14.1185 7.40716C13.7352 7.40716 13.4241 7.09609 13.4241 6.71281V2.54669C13.4241 1.90879 12.9049 1.38938 12.267 1.38938H1.85166C1.46838 1.38938 1.15731 1.07831 1.15731 0.695025C1.15731 0.31174 1.46838 0.000671387 1.85166 0.000671387H12.267C13.6714 0.000671387 14.8128 1.14222 14.8128 2.54669V6.71281C14.8128 7.09609 14.5018 7.40716 14.1185 7.40716Z" fill="#C7CADD"/>
<path d="M12.267 19.4426H8.56365C8.18036 19.4426 7.86929 19.1315 7.86929 18.7482C7.86929 18.3649 8.18036 18.0538 8.56365 18.0538H12.267C12.9049 18.0538 13.4241 17.5344 13.4241 16.8965V12.7304C13.4241 12.3471 13.7352 12.0361 14.1185 12.0361C14.5018 12.0361 14.8128 12.3471 14.8128 12.7304V16.8965C14.8128 18.301 13.6714 19.4426 12.267 19.4426Z" fill="#C7CADD"/>
</g>
<defs>
<clipPath id="clip0">
<rect width="22.22" height="22.22" fill="white"/>
</clipPath>
</defs>
</svg>
