<svg width="22" height="23" viewBox="0 0 22 23" fill="none" xmlns="http://www.w3.org/2000/svg">
<path d="M10.1723 3.86662H10.6723V3.36662V2.45616C10.6723 2.44184 10.6839 2.43025 10.6982 2.43025C10.7126 2.43025 10.7242 2.44184 10.7242 2.45616V3.36662V3.86662H11.2242H12.1346C12.1489 3.86662 12.1605 3.87821 12.1605 3.89253C12.1605 3.90685 12.1489 3.91844 12.1346 3.91844H11.2242H10.7242V4.41844V5.32895C10.7242 5.34327 10.7126 5.35486 10.6982 5.35486C10.6839 5.35486 10.6723 5.34327 10.6723 5.32895V4.41844V3.91844H10.1723H9.26187C9.24755 3.91844 9.23596 3.90685 9.23596 3.89253C9.23596 3.87821 9.24755 3.86662 9.26187 3.86662H10.1723ZM2.54304 21.6682H3.04304V21.1682V3.89248C3.04304 3.87816 3.05464 3.86657 3.06895 3.86657H6.84105H7.27781L7.33651 3.43377C7.56092 1.77946 8.98399 0.5 10.6982 0.5C12.4124 0.5 13.8355 1.7795 14.0599 3.43381L14.1186 3.86663L14.5553 3.86662L18.3274 3.86657C18.3343 3.86657 18.3409 3.8693 18.3457 3.87416C18.3506 3.87902 18.3533 3.88564 18.3533 3.89248V21.1682V21.6682H18.8533H20.8699C20.8843 21.6682 20.8959 21.6798 20.8959 21.6941C20.8959 21.7084 20.8843 21.72 20.8699 21.72H0.525911C0.511591 21.72 0.5 21.7084 0.5 21.6941C0.5 21.6798 0.511593 21.6682 0.525911 21.6682H2.54304ZM10.6723 17.3801L10.6724 16.8801H10.1723H7.45963H6.95963V17.3801V21.1682V21.6682H7.45963H10.1721H10.672L10.6721 21.1682L10.6723 17.3801ZM11.2241 16.8801H10.7241L10.7241 17.3801L10.7238 21.1681L10.7238 21.6682H11.2238H13.9368H14.4368V21.1682V17.3801H13.9369V16.8801H13.9368H13.4368H11.2241ZM14.5554 3.91839H14.1186L14.0599 4.35119C13.8356 6.00552 12.4125 7.28506 10.6983 7.28506C8.98405 7.28506 7.56093 6.00551 7.33657 4.35119L7.27787 3.91839H6.8411H3.59487H3.09487V4.41839V21.1682V21.6682H3.59487H6.40781H6.90781V21.1682V16.8542C6.90781 16.8399 6.9194 16.8283 6.93372 16.8283H10.6982H14.4628C14.4771 16.8283 14.4887 16.8399 14.4887 16.8542V21.1682V21.6682H14.9887H17.8015H18.3015V21.1682V4.41839H17.8016V3.91839H17.8015H17.3015H14.5554ZM14.3386 13.7429V14.2429H14.8386H15.5789H16.0789V13.7429V10.1064V9.60638H15.5789H14.8386H14.3386V10.1064V13.7429ZM11.5683 10.1064V9.60638H11.0683H10.3281H9.8281V10.1064V13.7429V14.2429H10.3281H11.0683H11.5683V13.7429V10.1064ZM7.05785 10.1064V9.60638H6.55785H5.81763H5.31763V10.1064V13.7429V14.2429H5.81763H6.55785H7.05785V13.7429V10.1064ZM7.35748 3.89253C7.35748 5.73505 8.85568 7.23324 10.6982 7.23324C12.5408 7.23324 14.0389 5.73503 14.0389 3.89253C14.0389 2.05003 12.5408 0.551822 10.6982 0.551822C8.85574 0.551822 7.35748 2.05 7.35748 3.89253ZM14.3127 9.55456H16.1048C16.1191 9.55456 16.1307 9.56615 16.1307 9.58047V14.2689C16.1307 14.2832 16.1191 14.2948 16.1048 14.2948H14.3127C14.2984 14.2948 14.2868 14.2832 14.2868 14.2689V9.58047C14.2868 9.56615 14.2984 9.55456 14.3127 9.55456ZM11.6201 9.58047V14.2689C11.6201 14.2832 11.6085 14.2948 11.5942 14.2948H9.80219C9.78788 14.2948 9.77628 14.2832 9.77628 14.2689V9.58047C9.77628 9.56615 9.78788 9.55456 9.80219 9.55456H11.5942C11.6085 9.55456 11.6201 9.56615 11.6201 9.58047ZM7.10967 9.58047V14.2689C7.10967 14.2832 7.09808 14.2948 7.08376 14.2948H5.29172C5.2774 14.2948 5.26581 14.2832 5.26581 14.2689V9.58047C5.26581 9.56615 5.2774 9.55456 5.29172 9.55456H7.08376C7.09808 9.55456 7.10967 9.56615 7.10967 9.58047Z" fill="black" stroke="#C7CADD"/>
</svg>
